HIERARCHY
ROOT Hips
{
	OFFSET -0.001795 -0.223333 0.028219
	CHANNELS 6 Xposition Yposition Zposition Zrotation Yrotation Xrotation 
	JOINT LeftUpLeg
	{
		OFFSET 0.069520 -0.091406 -0.006815
		CHANNELS 3 Zrotation Yrotation Xrotation
		JOINT LeftLeg
		{
			OFFSET 0.034277 -0.375199 -0.004496
			CHANNELS 3 Zrotation Yrotation Xrotation
			JOINT LeftFoot
			{
				OFFSET -0.013596 -0.397961 -0.043693
				CHANNELS 3 Zrotation Yrotation Xrotation
				JOINT LeftToe
				{
					OFFSET 0.026358 -0.055791 0.119288
					CHANNELS 3 Zrotation Yrotation Xrotation
					End Site
					{
						OFFSET 0.000000 0.000000 0.000000
					}
				}
			}
		}
	}
	JOINT RightUpLeg
	{
		OFFSET -0.067670 -0.090522 -0.004320
		CHANNELS 3 Zrotation Yrotation Xrotation
		JOINT RightLeg
		{
			OFFSET -0.038290 -0.382569 -0.008850
			CHANNELS 3 Zrotation Yrotation Xrotation
			JOINT RightFoot
			{
				OFFSET 0.015774 -0.398415 -0.042312
				CHANNELS 3 Zrotation Yrotation Xrotation
				JOINT RightToe
				{
					OFFSET -0.025372 -0.048144 0.123348
					CHANNELS 3 Zrotation Yrotation Xrotation
					End Site
					{
						OFFSET 0.000000 0.000000 0.000000
					}
				}
			}
		}
	}
	JOINT Spine
	{
		OFFSET -0.002533 0.108963 -0.026696
		CHANNELS 3 Zrotation Yrotation Xrotation
		JOINT Spine1
		{
			OFFSET 0.005487 0.135180 0.001092
			CHANNELS 3 Zrotation Yrotation Xrotation
			JOINT Spine2
			{
				OFFSET 0.001457 0.052922 0.025425
				CHANNELS 3 Zrotation Yrotation Xrotation
				JOINT Neck
				{
					OFFSET -0.002778 0.213870 -0.042857
					CHANNELS 3 Zrotation Yrotation Xrotation
					JOINT Head
					{
						OFFSET 0.005152 0.064970 0.051349
						CHANNELS 3 Zrotation Yrotation Xrotation
						End Site
						{
							OFFSET 0.000000 0.000000 0.000000
						}
					}
				}
				JOINT LeftShoulder
				{
					OFFSET 0.078845 0.121749 -0.034090
					CHANNELS 3 Zrotation Yrotation Xrotation
					JOINT LeftArm
					{
						OFFSET 0.090977 0.030469 -0.008868
						CHANNELS 3 Zrotation Yrotation Xrotation
						JOINT LeftForeArm
						{
							OFFSET 0.259612 -0.012772 -0.027456
							CHANNELS 3 Zrotation Yrotation Xrotation
							JOINT LeftHand
							{
								OFFSET 0.249234 0.008986 -0.001171
								CHANNELS 3 Zrotation Yrotation Xrotation
								End Site
								{
									OFFSET 0.000000 0.000000 0.000000
								}
							}
						}
					}
				}
				JOINT RightShoulder
				{
					OFFSET -0.081759 0.118833 -0.038615
					CHANNELS 3 Zrotation Yrotation Xrotation
					JOINT RightArm
					{
						OFFSET -0.096012 0.032551 -0.009143
						CHANNELS 3 Zrotation Yrotation Xrotation
						JOINT RightForeArm
						{
							OFFSET -0.253742 -0.013329 -0.021401
							CHANNELS 3 Zrotation Yrotation Xrotation
							JOINT RightHand
							{
								OFFSET -0.255298 0.007772 -0.005559
								CHANNELS 3 Zrotation Yrotation Xrotation
								End Site
								{
									OFFSET 0.000000 0.000000 0.000000
								}
							}
						}
					}
				}
			}
		}
	}
}
MOTION
Frames: 16
Frame Time: 0.050000
0.000000 0.942865 0.000000 0.590927 -1.067193 10.046582 4.669277 -0.530100 -7.299230 0.110321 0.212883 -6.337057 2.298215 8.225054 12.061200 0.000000 0.000000 0.000000 -4.714964 0.704909 -7.873469 -2.147339 -0.048252 -4.495982 -3.439063 -11.669256 12.458989 0.000000 0.000000 0.000000 4.703177 0.330664 -6.417801 -2.572570 1.179929 -6.953333 -4.159760 4.948550 6.394384 2.452925 -0.452329 -10.684407 0.000000 0.000000 0.000000 -14.245489 2.490666 -3.399173 -57.052879 -7.672855 -3.300133 -7.164955 -13.848014 1.270640 0.000000 0.000000 0.000000 11.692605 -10.302053 -5.203785 66.038262 1.177874 -5.278834 5.211300 21.257613 1.832166 0.000000 0.000000 0.000000 
-0.000084 0.942311 0.000390 0.678938 -1.440547 10.774999 4.277632 -0.536242 -7.111848 0.693194 0.228964 -7.421598 2.649692 8.752851 12.056760 0.000000 0.000000 0.000000 -4.908771 0.761020 -8.669985 -2.556326 -0.043119 -4.774273 -2.900179 -10.880086 13.205676 0.000000 0.000000 0.000000 6.134886 0.396310 -7.003150 -3.491774 1.526955 -7.460311 -5.360257 5.850950 6.187128 0.980447 0.711685 -11.637677 0.000000 0.000000 0.000000 -14.737636 3.441612 -4.103339 -55.780400 -7.256889 -3.372061 -7.749019 -13.211145 1.254906 0.000000 0.000000 0.000000 11.044056 -11.874563 -5.770653 68.006627 -0.116242 -5.937254 5.728003 21.872643 2.025542 0.000000 0.000000 0.000000 
-0.000187 0.942404 0.000541 1.428478 -0.905367 10.394352 3.774172 -0.564848 -7.360529 0.389954 0.171500 -5.640897 1.992773 7.517639 11.089510 0.000000 0.000000 0.000000 -5.521026 0.736412 -8.721496 -2.679176 0.017362 -3.966230 -3.666186 -12.127974 12.824560 0.000000 0.000000 0.000000 5.393454 0.343879 -6.560376 -3.471378 1.519903 -8.275487 -5.684321 5.080402 6.302735 0.659801 0.785619 -10.638978 0.000000 0.000000 0.000000 -14.314354 3.047142 -3.755871 -55.477401 -6.844509 -3.573012 -7.890833 -12.280357 1.190712 0.000000 0.000000 0.000000 12.114878 -10.458715 -5.281006 66.319152 -0.391935 -6.140705 6.706494 21.888639 2.180194 0.000000 0.000000 0.000000 
-0.000221 0.942383 0.000579 1.803971 -0.594138 10.817745 3.667651 -0.604779 -7.888044 0.238907 0.187278 -5.837497 1.612991 6.992683 11.356253 0.000000 0.000000 0.000000 -5.790037 0.766188 -9.411195 -3.066658 0.027751 -4.200629 -3.935804 -12.747352 13.898061 0.000000 0.000000 0.000000 5.255102 0.358694 -6.871816 -3.828760 1.671103 -7.481842 -5.833794 4.270513 4.817091 -0.329061 1.278784 -9.484582 0.000000 0.000000 0.000000 -14.728107 3.966104 -4.212143 -55.560513 -6.929025 -3.368641 -6.864770 -11.723076 1.036564 0.000000 0.000000 0.000000 10.981846 -10.700820 -5.319141 67.178115 -0.993001 -6.387043 7.860881 22.802989 2.456591 0.000000 0.000000 0.000000 
-0.000239 0.942775 0.000552 2.150342 -0.214246 10.607101 3.148230 -0.615782 -7.787422 0.139450 0.186350 -5.671221 1.253577 6.393326 11.166023 0.000000 0.000000 0.000000 -5.973460 0.750924 -9.410069 -3.505611 0.064406 -4.110517 -4.215493 -13.199815 13.935834 0.000000 0.000000 0.000000 4.686548 0.324518 -6.568412 -3.353269 1.493347 -7.521978 -6.126497 3.707095 4.777549 -0.791573 1.643013 -10.361866 0.000000 0.000000 0.000000 -14.676854 3.995452 -4.170122 -55.413671 -7.265675 -3.198746 -7.521161 -11.353071 1.070546 0.000000 0.000000 0.000000 10.799169 -10.420570 -5.190890 67.019497 -0.858139 -6.320565 8.296460 22.759535 2.516789 0.000000 0.000000 0.000000 
-0.000215 0.943212 0.000503 2.362983 -0.336765 10.608915 2.862330 -0.622459 -7.769221 0.218234 0.173695 -5.445396 1.354065 6.525679 11.082458 0.000000 0.000000 0.000000 -6.217144 0.738052 -9.255755 -3.742147 0.039126 -4.659245 -4.157604 -13.216654 14.694057 0.000000 0.000000 0.000000 4.471166 0.317881 -6.506609 -3.510718 1.551132 -7.731151 -6.044918 3.567971 4.708479 -1.164519 1.858832 -10.196062 0.000000 0.000000 0.000000 -15.047631 4.314889 -4.360967 -55.043450 -7.684793 -2.961348 -7.319533 -10.977758 1.019890 0.000000 0.000000 0.000000 10.536258 -10.180507 -5.064570 67.259185 -0.819128 -6.329414 8.633905 22.924141 2.588007 0.000000 0.000000 0.000000 
-0.000197 0.943404 0.000394 2.416558 -0.252275 10.469575 2.767695 -0.627684 -7.810074 0.014012 0.176361 -5.182129 1.360510 6.574520 11.182653 0.000000 0.000000 0.000000 -6.234038 0.725574 -9.073207 -3.871676 0.028443 -4.918457 -4.153064 -13.216685 14.837166 0.000000 0.000000 0.000000 4.288902 0.308268 -6.396951 -3.368728 1.498927 -7.657296 -6.125890 3.224997 4.586702 -1.049856 1.791027 -10.573447 0.000000 0.000000 0.000000 -14.900393 4.141961 -4.203918 -55.165200 -7.637846 -2.981739 -7.896317 -11.501534 1.128296 0.000000 0.000000 0.000000 10.775665 -9.871275 -4.984027 67.218781 -0.588982 -6.233558 8.741664 23.116822 2.620278 0.000000 0.000000 0.000000 
-0.000172 0.943656 0.000254 2.462451 0.130308 10.502049 2.632411 -0.656563 -8.144660 0.021559 0.156674 -4.632293 1.344915 6.460860 10.702609 0.000000 0.000000 0.000000 -6.197043 0.712889 -8.895181 -3.945835 0.027091 -5.021495 -4.219909 -13.249841 14.617450 0.000000 0.000000 0.000000 4.121866 0.307868 -6.465234 -3.300644 1.479098 -7.618636 -6.116289 2.915951 4.473853 -0.947259 1.695108 -10.319337 0.000000 0.000000 0.000000 -14.947841 3.725811 -4.000918 -55.089041 -8.016651 -2.787311 -8.594677 -12.169228 1.267908 0.000000 0.000000 0.000000 10.953878 -9.647412 -4.916646 67.253816 -0.492889 -6.188225 8.779169 23.367082 2.654023 0.000000 0.000000 0.000000 
-0.000194 0.944047 0.000059 2.469076 0.400078 10.471655 2.654233 -0.658171 -8.162022 0.005281 0.155364 -4.568339 1.242266 6.361601 10.852065 0.000000 0.000000 0.000000 -6.158237 0.699061 -8.672854 -3.989215 0.001861 -5.410176 -4.297065 -13.383503 14.898563 0.000000 0.000000 0.000000 3.992910 0.309321 -6.529733 -3.122840 1.414498 -7.713326 -6.070300 2.649312 4.477361 -0.870793 1.630327 -10.258044 0.000000 0.000000 0.000000 -14.950374 3.358679 -3.803474 -55.369950 -8.399354 -2.626363 -9.180744 -12.559701 1.374134 0.000000 0.000000 0.000000 11.031680 -9.232130 -4.747245 67.414002 -0.370083 -6.157515 8.535075 23.710871 2.645841 0.000000 0.000000 0.000000 
-0.000224 0.944288 -0.000183 2.454415 0.728408 10.389638 2.727995 -0.666446 -8.300800 -0.116891 0.150255 -4.182123 1.217975 6.276037 10.569932 0.000000 0.000000 0.000000 -6.185676 0.689599 -8.621693 -3.989510 0.004908 -5.393309 -4.384801 -13.476774 14.785572 0.000000 0.000000 0.000000 3.888399 0.313976 -6.629350 -3.088803 1.406855 -7.577041 -6.021447 2.446563 4.380750 -0.605944 1.428375 -9.957260 0.000000 0.000000 0.000000 -14.705408 2.770219 -3.475633 -55.635055 -8.854799 -2.424798 -9.854240 -13.324882 1.534856 0.000000 0.000000 0.000000 11.221144 -8.853603 -4.599527 67.411856 -0.255960 -6.097416 8.350662 24.237368 2.676806 0.000000 0.000000 0.000000 
-0.000254 0.944428 -0.000438 2.413054 0.842653 10.329713 2.873556 -0.658792 -8.251448 -0.168877 0.149536 -4.054728 1.175689 6.195655 10.501772 0.000000 0.000000 0.000000 -6.151780 0.680915 -8.460099 -4.067896 -0.000536 -5.527050 -4.454853 -13.604124 14.963041 0.000000 0.000000 0.000000 3.896257 0.317338 -6.680710 -3.012136 1.379627 -7.604995 -6.035713 2.473983 4.316038 -0.506037 1.361791 -9.887872 0.000000 0.000000 0.000000 -14.850704 2.153791 -3.226243 -55.760137 -9.186110 -2.264195 -10.379648 -14.126092 1.690019 0.000000 0.000000 0.000000 11.412414 -8.458371 -4.430183 67.592097 -0.109483 -6.021378 8.251692 24.720591 2.722069 0.000000 0.000000 0.000000 
-0.000232 0.944459 -0.000635 2.371033 1.268209 10.289096 3.131748 -0.655217 -8.289564 -0.269808 0.154339 -4.001720 1.062468 6.093114 10.644540 0.000000 0.000000 0.000000 -5.971306 0.674058 -8.356772 -4.272419 0.019855 -5.438457 -4.438544 -13.507871 14.871406 0.000000 0.000000 0.000000 3.894254 0.325776 -6.832479 -2.936089 1.357045 -7.257519 -6.026431 2.236700 3.993921 -0.025978 1.039136 -9.869728 0.000000 0.000000 0.000000 -14.842118 1.705530 -3.021802 -56.107032 -9.273895 -2.204691 -10.606632 -14.651616 1.779067 0.000000 0.000000 0.000000 11.369514 -8.047033 -4.234167 67.879911 -0.073820 -5.989452 8.059968 25.568390 2.786534 0.000000 0.000000 0.000000 
-0.000174 0.944675 -0.000754 2.204468 1.470184 10.245912 3.227502 -0.647055 -8.196915 -0.029408 0.139051 -4.034210 1.037450 6.143011 10.879187 0.000000 0.000000 0.000000 -5.698046 0.673575 -8.261388 -4.565070 0.036773 -5.443043 -4.377492 -13.405264 15.118684 0.000000 0.000000 0.000000 4.022785 0.332757 -6.917602 -2.819566 1.315230 -7.192102 -6.073322 2.383994 3.837252 0.342217 0.795471 -9.702147 0.000000 0.000000 0.000000 -14.684710 1.318409 -2.861551 -56.287970 -9.348924 -2.170675 -11.038778 -15.332575 1.911745 0.000000 0.000000 0.000000 11.530367 -8.075258 -4.238042 67.858144 0.083039 -5.854225 8.100737 26.269062 2.900215 0.000000 0.000000 0.000000 
-0.000104 0.944699 -0.000790 2.126792 1.783439 10.318133 3.193099 -0.664470 -8.414739 0.167386 0.118484 -3.824064 0.877098 5.849513 10.677506 0.000000 0.000000 0.000000 -5.564861 0.677670 -8.330302 -4.643737 0.055306 -5.287287 -4.269602 -13.143986 14.887780 0.000000 0.000000 0.000000 4.130761 0.343247 -7.083323 -2.664053 1.257744 -6.928549 -6.201605 2.437557 3.560569 1.261398 0.180976 -9.534128 0.000000 0.000000 0.000000 -14.691172 0.781552 -2.664673 -56.143408 -9.400756 -2.107357 -11.234009 -15.682493 1.971673 0.000000 0.000000 0.000000 11.358009 -7.801980 -4.060761 68.097645 0.274524 -5.688110 7.695471 27.120968 2.931526 0.000000 0.000000 0.000000 
-0.000108 0.944921 -0.000841 2.161062 1.902807 10.255772 3.051145 -0.661133 -8.293373 0.316560 0.110132 -3.874448 0.739864 5.711245 10.924139 0.000000 0.000000 0.000000 -5.544828 0.669308 -8.203815 -4.828189 0.069791 -5.249454 -4.128540 -12.867749 14.797288 0.000000 0.000000 0.000000 4.180638 0.344069 -7.085426 -2.575959 1.224969 -6.853977 -6.367201 2.548856 3.451617 1.701717 -0.112584 -9.422822 0.000000 0.000000 0.000000 -14.664472 0.605284 -2.618560 -56.178056 -9.151619 -2.219407 -11.264398 -16.018982 2.011336 0.000000 0.000000 0.000000 11.283485 -7.874934 -4.062695 68.173866 0.586895 -5.464393 7.665226 27.983079 3.049515 0.000000 0.000000 0.000000 
-0.000219 0.944914 -0.000946 2.102676 1.756703 10.209171 3.144925 -0.666998 -8.446706 0.254471 0.099472 -3.459075 0.761274 5.673966 10.744457 0.000000 0.000000 0.000000 -5.356490 0.681793 -8.314970 -4.997226 0.106374 -4.922439 -3.935114 -12.533490 14.673716 0.000000 0.000000 0.000000 4.168436 0.340134 -7.006015 -2.439266 1.168454 -6.686245 -6.363870 2.602043 3.123270 2.834943 -0.890614 -9.308246 0.000000 0.000000 0.000000 -14.708437 0.410970 -2.540270 -55.910021 -8.743023 -2.362140 -11.397172 -16.212116 2.051767 0.000000 0.000000 0.000000 10.919679 -7.692801 -3.941465 68.767891 0.761048 -5.349942 7.261175 29.246444 3.106322 0.000000 0.000000 0.000000 
